<svg width="2000" height="2000" viewBox="0 0 2000 2000" fill="none" xmlns="http://www.w3.org/2000/svg">
<path d="M1332.85 304.602C1429.6 300.093 1211.64 520.82 1211.64 520.82H788.036C788.036 520.82 570.967 290.74 666.82 304.602C700.579 309.485 712.234 339.624 746.327 340.747C783.102 341.958 796.566 303.043 833.328 304.602C866.716 306.018 877.505 339.071 910.88 340.747C948.335 342.628 962.377 302.841 999.837 304.602C1033.45 306.183 1044.43 339.253 1078.04 340.747C1115.27 342.402 1129.13 302.708 1166.35 304.602C1199.49 306.289 1210.11 338.891 1243.25 340.747C1280.92 342.858 1295.16 306.359 1332.85 304.602Z" fill="#1BAF7A"/>
<path d="M1332.85 304.602C1429.6 300.093 1211.64 520.82 1211.64 520.82H788.036L1195.75 486.018C1195.75 486.018 1291.81 370.831 1314.36 308.559C1319.94 306.387 1326.01 304.921 1332.85 304.602Z" fill="#1A6B4E"/>
<path d="M713.253 598.972C713.253 580.988 727.842 566.409 745.838 566.409H1254.16C1272.16 566.409 1286.75 580.988 1286.75 598.972C1286.75 616.956 1272.16 631.535 1254.16 631.535H745.838C727.842 631.535 713.253 616.956 713.253 598.972Z" fill="#FFC800"/>
<path d="M1274.06 573.186C1281.78 579.141 1286.75 588.476 1286.75 598.972C1286.75 616.956 1272.16 631.535 1254.16 631.535H745.838C733.663 631.535 723.048 624.861 717.455 614.975C722.959 619.224 729.861 621.753 737.354 621.753H1245.68C1263.67 621.753 1278.26 607.174 1278.26 589.19C1278.26 583.373 1276.73 577.913 1274.06 573.186Z" fill="#A4830C"/>
<path d="M1211.57 677.123C1260.81 719.482 1314.46 773.604 1374.37 839.771C1666.69 1162.63 1709.67 1605 1374.37 1605H1000V1604.68H625.632C290.332 1604.68 333.314 1162.31 625.632 839.448C685.387 773.449 738.914 719.434 788.058 677.123H1211.57Z" fill="#1BAF7A"/>
<path d="M1498.17 1006.9C1670.57 1296.63 1654.32 1605 1374.37 1605H1000V1604.68H625.632C481.181 1604.68 406.939 1522.57 392.595 1403.29C420.744 1469.8 469.683 1510.35 541.637 1510.35H825.008V1510.72H1348.2C1521.96 1510.72 1561.51 1274.23 1498.17 1006.9Z" fill="#1A6B4E"/>
<path d="M1058.09 908.23L1062.27 879.545C1062.27 879.545 1112.52 877.154 1141.83 889.704C1144.82 890.899 1134.65 1006.24 1134.65 1025.36C1134.65 1034.32 1041.34 1033.73 1041.34 1031.34C1038.35 996.675 1018.01 983.528 999.471 983.528C988.704 983.528 966.574 988.906 966.574 1012.81C966.574 1034.32 1011.43 1047.47 1055.7 1073.77C1108.93 1104.84 1153.79 1136.52 1153.79 1210.02C1153.79 1275.16 1099.36 1324.16 1041.94 1327.75C1043.13 1352.85 1041.94 1384.52 1041.94 1386.31C1041.94 1388.11 985.116 1385.72 983.919 1385.72C982.723 1385.72 979.732 1346.87 978.536 1321.18C952.218 1313.41 936.069 1301.45 930.686 1294.88C929.489 1308.03 928.293 1331.93 927.695 1331.93C924.704 1330.74 849.339 1326.55 849.339 1326.55C848.143 1313.41 848.143 1205.84 848.143 1174.76C888.816 1165.8 930.087 1164 942.05 1165.8C952.816 1206.44 977.34 1227.95 996.48 1227.95C1013.83 1227.95 1029.38 1218.39 1029.38 1200.46C1029.38 1166.4 991.097 1155.64 955.209 1135.92C901.975 1107.83 850.536 1077.35 850.536 991.894C850.536 935.122 895.396 888.509 969.564 884.923C968.966 868.788 967.77 834.127 968.368 831.736C968.966 828.748 1021.6 822.772 1022.2 825.76C1022.8 828.748 1023.4 875.361 1023.99 890.899C1039.55 895.68 1052.11 902.254 1058.09 908.23Z" fill="#FFC800"/>
<path d="M848.148 1193C848.17 1235.56 848.32 1315.35 849.34 1326.56C849.489 1326.56 924.703 1330.74 927.695 1331.93C928.293 1331.93 929.49 1308.03 930.686 1294.88C936.069 1301.46 952.219 1313.41 978.536 1321.18C979.732 1346.87 982.723 1385.72 983.919 1385.72C985.119 1385.72 1041.93 1388.11 1041.94 1386.32C1041.94 1385.35 1042.28 1375.66 1042.42 1363C1042.67 1383.5 1041.94 1403.15 1041.94 1404.55C1041.93 1406.34 985.119 1403.95 983.919 1403.95C982.723 1403.95 979.732 1365.11 978.536 1339.41C952.219 1331.64 936.069 1319.69 930.686 1313.12C929.49 1326.26 928.293 1350.17 927.695 1350.17C924.703 1348.97 849.489 1344.8 849.34 1344.79C848.143 1331.64 848.143 1224.07 848.143 1193C848.145 1193 848.146 1193 848.148 1193Z" fill="#A4830C"/>
<path d="M1153.5 1218.21C1153.69 1221.47 1153.79 1224.82 1153.79 1228.26C1153.79 1293.21 1099.67 1342.12 1042.43 1345.95C1042.37 1339.84 1042.22 1333.61 1041.94 1327.75C1096.93 1324.32 1149.17 1279.23 1153.5 1218.21Z" fill="#A4830C"/>
<path d="M850.812 1002.48C854.904 1079.93 904.233 1109.02 955.209 1135.92C991.097 1155.64 1029.38 1166.4 1029.38 1200.46C1029.38 1203.44 1028.95 1206.18 1028.15 1208.69C1021.36 1182.27 987.326 1171.8 955.209 1154.15C901.975 1126.07 850.535 1095.59 850.535 1010.13C850.535 1007.56 850.629 1005 850.812 1002.48Z" fill="#A4830C"/>
<path d="M1141.99 908.152C1144.41 913.788 1134.65 1024.86 1134.65 1043.6C1134.65 1052.56 1041.35 1051.96 1041.34 1049.57C1038.35 1014.91 1018.01 1001.76 999.471 1001.76C990.578 1001.76 973.932 1005.43 968.408 1020.18C967.211 1017.82 966.574 1015.38 966.574 1012.81C966.574 988.908 988.705 983.529 999.471 983.529C1018.01 983.529 1038.35 996.677 1041.34 1031.34C1041.35 1033.73 1134.65 1034.33 1134.65 1025.36C1134.65 1010.94 1140.43 941.789 1141.99 908.152Z" fill="#A4830C"/>
<path d="M968.43 849.833C968.723 861.483 969.234 876.023 969.564 884.924C969.352 884.935 969.139 884.946 968.927 884.957C968.409 869.095 967.95 851.644 968.368 849.971C968.377 849.926 968.398 849.88 968.43 849.833Z" fill="#A4830C"/>
</svg>
